<svg width="24" height="24" viewBox="0 0 24 24" fill="none" xmlns="http://www.w3.org/2000/svg">
<path d="M12.549 2.25997C12.288 2.08703 11.981 1.99647 11.6679 2.00004C11.3548 2.00361 11.05 2.10113 10.793 2.27997L2.928 7.75997C2.508 8.05197 2.258 8.52997 2.258 9.04197V14.945C2.258 15.47 2.522 15.959 2.96 16.248L10.954 21.533C11.2095 21.7019 11.5091 21.792 11.8155 21.792C12.1219 21.792 12.4214 21.7019 12.677 21.533L20.83 16.147C21.268 15.857 21.531 15.367 21.531 14.843V9.04297C21.531 8.51897 21.268 8.02997 20.831 7.73997L12.549 2.25997ZM18.639 8.65297L15.625 10.676L12.799 8.62097L12.781 4.57897L18.639 8.65297ZM10.737 4.58297V8.53997L7.84 10.564L4.953 8.62697L10.737 4.58297ZM4.16 10.576L6.03 11.829L4.16 13.137V10.576ZM10.785 19.009L4.954 15.1L7.867 13.063L10.787 15.021V19.011L10.785 19.009ZM9.68 11.796L11.568 10.476L13.768 11.921L11.818 13.231L9.68 11.796ZM12.847 19.009V15.019L15.637 13.149L18.64 15.124L12.847 19.009ZM19.472 13.204L17.492 11.904L19.472 10.575V13.204Z" fill="#3E392D"/>
</svg>
