<svg width="24" height="24" viewBox="0 0 24 24" fill="none" xmlns="http://www.w3.org/2000/svg">
<path fill-rule="evenodd" clip-rule="evenodd" d="M12.75 15.373C13.4427 15.9287 14.3007 16.2379 15.1887 16.252C16.0766 16.2661 16.944 15.9842 17.654 15.4508C18.3641 14.9174 18.8764 14.1628 19.1101 13.306C19.3438 12.4493 19.2857 11.5391 18.945 10.719C18.6598 10.0301 18.1877 9.43474 17.582 9C18.0983 8.62988 18.519 8.14198 18.8091 7.57676C19.0992 7.01155 19.2503 6.38531 19.25 5.75C19.25 4.68913 18.8285 3.67172 18.0784 2.92157C17.3283 2.17143 16.3108 1.75 15.25 1.75H8.74997C7.90321 1.74997 7.07828 2.01865 6.39396 2.51736C5.70964 3.01608 5.20124 3.71909 4.94195 4.52518C4.68267 5.33127 4.68589 6.19885 4.95113 7.003C5.21638 7.80714 5.72998 8.50637 6.41797 9C5.90182 9.37033 5.4813 9.85828 5.19121 10.4234C4.90112 10.9886 4.74982 11.6147 4.74982 12.25C4.74982 12.8853 4.90112 13.5114 5.19121 14.0766C5.4813 14.6417 5.90182 15.1297 6.41797 15.5C5.86111 15.8996 5.41626 16.4356 5.1261 17.0565C4.83594 17.6774 4.71021 18.3625 4.76095 19.046C4.8117 19.7296 5.03722 20.3886 5.4159 20.9599C5.79457 21.5311 6.31369 21.9955 6.92345 22.3085C7.53322 22.6215 8.21317 22.7725 8.8981 22.7471C9.58302 22.7218 10.2499 22.5208 10.8349 22.1636C11.4198 21.8063 11.9031 21.3048 12.2385 20.707C12.5738 20.1093 12.75 19.4354 12.75 18.75V15.373ZM8.74997 3.25C8.08693 3.25 7.45105 3.51339 6.98221 3.98223C6.51336 4.45107 6.24997 5.08696 6.24997 5.75C6.24997 6.41304 6.51336 7.04893 6.98221 7.51777C7.45105 7.98661 8.08693 8.25 8.74997 8.25H11.25V3.25H8.74997ZM11.25 16.25H8.74997C8.25552 16.25 7.77217 16.3966 7.36105 16.6713C6.94992 16.946 6.62949 17.3365 6.44027 17.7933C6.25105 18.2501 6.20155 18.7528 6.29801 19.2377C6.39447 19.7227 6.63257 20.1681 6.98221 20.5178C7.33184 20.8674 7.77729 21.1055 8.26225 21.202C8.7472 21.2984 9.24987 21.2489 9.70668 21.0597C10.1635 20.8705 10.5539 20.55 10.8286 20.1389C11.1034 19.7278 11.25 19.2445 11.25 18.75V16.25ZM8.74997 9.75C8.08693 9.75 7.45105 10.0134 6.98221 10.4822C6.51336 10.9511 6.24997 11.587 6.24997 12.25C6.24997 12.913 6.51336 13.5489 6.98221 14.0178C7.45105 14.4866 8.08693 14.75 8.74997 14.75H11.25V9.75H8.74997ZM12.75 12.25C12.75 12.9132 13.0134 13.5492 13.4824 14.0181C13.9513 14.4871 14.5873 14.7505 15.2505 14.7505C15.9136 14.7505 16.5497 14.4871 17.0186 14.0181C17.4875 13.5492 17.751 12.9132 17.751 12.25C17.751 11.5868 17.4875 10.9508 17.0186 10.4819C16.5497 10.0129 15.9136 9.7495 15.2505 9.7495C14.5873 9.7495 13.9513 10.0129 13.4824 10.4819C13.0134 10.9508 12.75 11.5868 12.75 12.25ZM15.25 8.25C15.913 8.25 16.5489 7.98661 17.0177 7.51777C17.4866 7.04893 17.75 6.41304 17.75 5.75C17.75 5.08696 17.4866 4.45107 17.0177 3.98223C16.5489 3.51339 15.913 3.25 15.25 3.25H12.75V8.25H15.25Z" fill="#3E392D"/>
</svg>
