<svg width="34" height="34" viewBox="0 0 34 34" fill="none" xmlns="http://www.w3.org/2000/svg">
<path d="M5.66669 17C5.66669 17.7005 5.8744 18.3852 6.26357 18.9676C6.65273 19.5501 7.20586 20.004 7.85302 20.2721C8.50017 20.5401 9.21228 20.6103 9.8993 20.4736C10.5863 20.337 11.2174 19.9997 11.7127 19.5043C12.208 19.009 12.5453 18.378 12.682 17.6909C12.8186 17.0039 12.7485 16.2918 12.4804 15.6447C12.2124 14.9975 11.7584 14.4444 11.176 14.0552C10.5936 13.6661 9.90883 13.4583 9.20835 13.4583M19.8334 9.20834L12.75 14.1667M19.8334 24.7917L12.75 19.8333M23.375 29.75C24.0755 29.75 24.7602 29.5423 25.3427 29.1531C25.9251 28.764 26.379 28.2108 26.6471 27.5637C26.9152 26.9165 26.9853 26.2044 26.8486 25.5174C26.712 24.8304 26.3747 24.1993 25.8794 23.704C25.384 23.2087 24.753 22.8714 24.066 22.7347C23.379 22.5981 22.6668 22.6682 22.0197 22.9363C21.3725 23.2043 20.8194 23.6583 20.4302 24.2407C20.0411 24.8231 19.8334 25.5079 19.8334 26.2083M26.4421 9.5625C26.0919 10.1691 25.5696 10.6583 24.9414 10.9681C24.3131 11.2779 23.6071 11.3945 22.9126 11.3031C22.2181 11.2116 21.5664 10.9163 21.0397 10.4544C20.5131 9.99258 20.1352 9.38492 19.9539 8.70831C19.7726 8.03169 19.796 7.31651 20.0212 6.65321C20.2464 5.9899 20.6632 5.40827 21.219 4.98185C21.7747 4.55544 22.4444 4.3034 23.1434 4.25761C23.8424 4.21182 24.5392 4.37433 25.1459 4.72459" stroke="#3E392D" stroke-width="2" stroke-linecap="round"/>
</svg>
