<svg width="32" height="32" viewBox="0 0 32 32" fill="none" xmlns="http://www.w3.org/2000/svg">
<path d="M27.636 8H4.36328L5.65621 0H8.24207L9.535 1.33333L9.56278 4.1569H12.1486L12.1209 2.66667L14.7067 0H17.2926L19.8784 2.66667L19.8986 4.1569H22.482L22.4643 1.33333L23.7572 0H26.3431L27.636 8Z" fill="#408950"/>
<path d="M4.36328 9.33333V12L9.535 14.6667V24L5.65621 25.3333L4.36328 28.0007L9.535 26.6667H14.7067V9.33333H4.36328Z" fill="#408950"/>
<path d="M27.636 9.33333V12L22.4643 14.6667V24L26.3431 25.3333L27.636 28.002L22.4643 26.6667H17.2926V9.33333H27.636Z" fill="#408950"/>
<path d="M4.36328 29.3333V32H27.636V29.3333L22.4643 28H9.535L4.36328 29.3333Z" fill="#408950"/>
</svg>
