<svg width="24" height="24" viewBox="0 0 24 24" fill="none" xmlns="http://www.w3.org/2000/svg">
<path d="M5.88399 18.653C5.58399 18.453 5.32599 18.197 5.02399 17.837C4.86724 17.6451 4.71191 17.4521 4.55799 17.258C4.09499 16.683 3.80299 16.417 3.50199 16.308C3.37534 16.2661 3.25836 16.1992 3.15794 16.1114C3.05751 16.0236 2.97567 15.9166 2.91723 15.7967C2.8588 15.6767 2.82495 15.5463 2.81768 15.4131C2.81041 15.2799 2.82987 15.1466 2.8749 15.021C2.91994 14.8955 2.98965 14.7802 3.07992 14.6819C3.1702 14.5837 3.27921 14.5046 3.40055 14.4491C3.52188 14.3937 3.65309 14.363 3.78643 14.3591C3.91978 14.3551 4.05257 14.3779 4.17699 14.426C4.92899 14.696 5.43799 15.161 6.12399 16.014C6.02999 15.897 6.46399 16.441 6.55699 16.553C6.74699 16.78 6.88699 16.918 6.99699 16.991C7.20099 17.128 7.58499 17.187 8.14699 17.131C8.17099 16.749 8.24099 16.378 8.34899 16.035C5.38099 15.31 3.70099 13.395 3.70099 9.63899C3.70099 8.40099 4.07099 7.28399 4.75899 6.34799C4.54099 5.45399 4.57399 4.37299 5.06099 3.15599C5.11614 3.01814 5.20129 2.8943 5.31026 2.79345C5.41923 2.69261 5.54929 2.6173 5.69099 2.57299C5.77199 2.54899 5.81799 2.53899 5.89899 2.52599C6.70199 2.40299 7.83599 2.69599 9.31399 3.62299C10.1948 3.41707 11.0964 3.31372 12.001 3.31499C12.913 3.31499 13.82 3.41799 14.685 3.62299C16.162 2.68999 17.299 2.39599 18.107 2.52599C18.192 2.53999 18.265 2.55799 18.325 2.57699C18.4638 2.62276 18.5909 2.69842 18.6974 2.79863C18.8038 2.89884 18.8869 3.02116 18.941 3.15699C19.428 4.37199 19.461 5.45299 19.243 6.34699C19.934 7.28299 20.301 8.39199 20.301 9.63899C20.301 13.397 18.627 15.305 15.659 16.032C15.784 16.447 15.849 16.91 15.849 17.412C15.849 18.076 15.847 18.711 15.842 19.422C15.842 19.612 15.84 19.816 15.837 20.128C16.0611 20.1773 16.2613 20.3022 16.4043 20.4817C16.5472 20.6612 16.624 20.8844 16.6219 21.1138C16.6198 21.3432 16.5389 21.5649 16.3927 21.7418C16.2465 21.9186 16.0439 22.0398 15.819 22.085C14.679 22.313 13.835 21.553 13.835 20.561L13.837 20.114L13.842 19.409C13.847 18.702 13.85 18.071 13.85 17.412C13.85 16.715 13.666 16.26 13.424 16.051C12.763 15.481 13.098 14.397 13.965 14.3C16.931 13.966 18.301 12.817 18.301 9.63999C18.301 8.68499 17.989 7.89499 17.388 7.23499C17.2617 7.09622 17.177 6.92473 17.1436 6.74012C17.1102 6.5555 17.1294 6.36521 17.199 6.19099C17.365 5.77599 17.435 5.23399 17.294 4.57699L17.284 4.57899C16.793 4.71899 16.174 5.01899 15.426 5.52899C15.3054 5.61084 15.1683 5.66534 15.0244 5.68866C14.8805 5.71198 14.7333 5.70356 14.593 5.66399C13.7489 5.42994 12.8769 5.31218 12.001 5.31399C11.111 5.31399 10.229 5.43399 9.40899 5.66399C9.26943 5.70324 9.123 5.71167 8.97986 5.6887C8.83671 5.66574 8.70027 5.61192 8.57999 5.53099C7.82699 5.02399 7.20599 4.72399 6.70999 4.58399C6.56699 5.23699 6.63799 5.77799 6.80299 6.19099C6.8726 6.36521 6.89178 6.5555 6.85836 6.74012C6.82494 6.92473 6.74026 7.09622 6.61399 7.23499C6.01699 7.89099 5.70099 8.69399 5.70099 9.63899C5.70099 12.811 7.07199 13.969 10.023 14.299C10.888 14.397 11.225 15.477 10.568 16.048C10.375 16.215 10.138 16.78 10.138 17.412V20.561C10.138 21.547 9.30399 22.287 8.17799 22.09C7.94921 22.0504 7.74133 21.9325 7.58999 21.7564C7.43866 21.5804 7.35331 21.3571 7.34858 21.125C7.34385 20.8929 7.42003 20.6663 7.56407 20.4842C7.70811 20.3021 7.91102 20.1758 8.13799 20.127V19.137C7.22799 19.199 6.47699 19.05 5.88399 18.653Z" fill="#3E392D"/>
</svg>
