<svg width="24" height="24" viewBox="0 0 24 24" fill="none" xmlns="http://www.w3.org/2000/svg">
<path d="M13.8572 18.4041C13.828 18.6909 13.7355 18.9677 13.5866 19.2146C13.4376 19.4615 13.2358 19.6723 12.9956 19.8319C12.5091 20.1562 11.9062 20.25 11.3559 20.25C10.8753 20.2473 10.3969 20.1843 9.93188 20.0625C9.7403 20.0089 9.57785 19.8814 9.48027 19.7081C9.3827 19.5347 9.35798 19.3297 9.41156 19.1381C9.46514 18.9465 9.59264 18.7841 9.76599 18.6865C9.93934 18.5889 10.1444 18.5642 10.3359 18.6178C10.7466 18.7303 11.7422 18.8709 12.1688 18.5841C12.2513 18.5287 12.3403 18.4416 12.3694 18.2156C12.4013 17.9653 12.3028 17.8313 11.1713 17.5041C10.2947 17.2509 8.8275 16.8263 9.015 15.3375C9.04425 15.0563 9.13499 14.785 9.28081 14.5428C9.42662 14.3006 9.62393 14.0934 9.85875 13.9359C10.9688 13.1859 12.7378 13.6256 12.9366 13.6772C13.129 13.7278 13.2935 13.8528 13.3938 14.0246C13.4941 14.1965 13.522 14.4011 13.4714 14.5936C13.4208 14.786 13.2958 14.9505 13.124 15.0508C12.9521 15.1511 12.7474 15.179 12.555 15.1284C12.1341 15.0187 11.1272 14.8884 10.6959 15.1809C10.6394 15.2191 10.5929 15.2702 10.5602 15.3301C10.5276 15.39 10.5098 15.4568 10.5084 15.525C10.4972 15.6094 10.4953 15.6272 10.6125 15.7031C10.8291 15.8428 11.2172 15.9544 11.5922 16.0631C12.5147 16.3284 14.0672 16.7812 13.8572 18.4041ZM20.25 8.25V20.25C20.25 20.6478 20.092 21.0294 19.8107 21.3107C19.5294 21.592 19.1478 21.75 18.75 21.75H16.5C16.3011 21.75 16.1103 21.671 15.9697 21.5303C15.829 21.3897 15.75 21.1989 15.75 21C15.75 20.8011 15.829 20.6103 15.9697 20.4697C16.1103 20.329 16.3011 20.25 16.5 20.25H18.75V9H14.25C14.0511 9 13.8603 8.92098 13.7197 8.78033C13.579 8.63968 13.5 8.44891 13.5 8.25V3.75H5.25V10.5C5.25 10.6989 5.17098 10.8897 5.03033 11.0303C4.88968 11.171 4.69891 11.25 4.5 11.25C4.30109 11.25 4.11032 11.171 3.96967 11.0303C3.82902 10.8897 3.75 10.6989 3.75 10.5V3.75C3.75 3.35218 3.90804 2.97064 4.18934 2.68934C4.47064 2.40804 4.85218 2.25 5.25 2.25H14.25C14.3485 2.24992 14.4461 2.26926 14.5371 2.3069C14.6282 2.34454 14.7109 2.39975 14.7806 2.46938L20.0306 7.71938C20.1003 7.78908 20.1555 7.87182 20.1931 7.96286C20.2307 8.05391 20.2501 8.15148 20.25 8.25ZM15 7.5H17.6897L15 4.81031V7.5ZM7.5 13.5H3.75C3.55109 13.5 3.36032 13.579 3.21967 13.7197C3.07902 13.8603 3 14.0511 3 14.25C3 14.4489 3.07902 14.6397 3.21967 14.7803C3.36032 14.921 3.55109 15 3.75 15H4.875V19.5C4.875 19.6989 4.95402 19.8897 5.09467 20.0303C5.23532 20.171 5.42609 20.25 5.625 20.25C5.82391 20.25 6.01468 20.171 6.15533 20.0303C6.29598 19.8897 6.375 19.6989 6.375 19.5V15H7.5C7.69891 15 7.88968 14.921 8.03033 14.7803C8.17098 14.6397 8.25 14.4489 8.25 14.25C8.25 14.0511 8.17098 13.8603 8.03033 13.7197C7.88968 13.579 7.69891 13.5 7.5 13.5Z" fill="#3E392D"/>
</svg>
